<?xml version="1.0" encoding="UTF-8" standalone="no"?>
<svg
   width="22"
   height="22"
   version="1.1"
   id="svg19"
   sodipodi:docname="keepbelow.svg"
   inkscape:version="1.3 (0e150ed6c4, 2023-07-21)"
   xmlns:inkscape="http://www.inkscape.org/namespaces/inkscape"
   xmlns:sodipodi="http://sodipodi.sourceforge.net/DTD/sodipodi-0.dtd"
   xmlns:xlink="http://www.w3.org/1999/xlink"
   xmlns="http://www.w3.org/2000/svg"
   xmlns:svg="http://www.w3.org/2000/svg">
  <sodipodi:namedview
     id="namedview19"
     pagecolor="#ffffff"
     bordercolor="#999999"
     borderopacity="1"
     inkscape:showpageshadow="0"
     inkscape:pageopacity="0"
     inkscape:pagecheckerboard="0"
     inkscape:deskcolor="#d1d1d1"
     inkscape:zoom="2.3551136"
     inkscape:cx="-14.012063"
     inkscape:cy="39.700844"
     inkscape:window-width="1920"
     inkscape:window-height="1016"
     inkscape:window-x="0"
     inkscape:window-y="32"
     inkscape:window-maximized="1"
     inkscape:current-layer="active-center" />
  <defs
     id="defs2">
    <linearGradient
       id="linearGradient832">
      <stop
         style="stop-color:#4381c1;stop-opacity:1"
         offset="0"
         id="stop1" />
      <stop
         style="stop-color:#5fa0e4;stop-opacity:1"
         offset="1"
         id="stop2" />
    </linearGradient>
    <linearGradient
       id="linearGradient990"
       x1="11"
       x2="11"
       y1="14"
       y2="8"
       gradientTransform="matrix(1,0,0,-1,44,23)"
       gradientUnits="userSpaceOnUse"
       xlink:href="#linearGradient832" />
  </defs>
  <g
     id="active-center">
    <rect
       width="22"
       height="22"
       x="0"
       y="0"
       style="opacity:0.001"
       id="rect2" />
    <path
       style="fill:#cccccc"
       d="m 11,15 v 0 l 4,-4 V 9 H 7 v 2 z"
       id="path2" />
    <path
       style="opacity:0.21"
       d="m 7,9 v 1 h 8 V 9 Z"
       id="path3" />
  </g>
  <g
     id="hover-center">
    <path
       style="opacity:0.37"
       d="M 25.300781,0 C 23.491611,0 22,1.4916113 22,3.3007812 V 18.699219 C 22,20.508389 23.491611,22 25.300781,22 H 40.699219 C 42.508389,22 44,20.508389 44,18.699219 V 3.3007812 C 44,1.4916113 42.508389,0 40.699219,0 Z m -0.07813,1 H 40.777344 C 42.008455,1 43,1.9915451 43,3.2226562 V 18.777344 C 43,20.008455 42.008455,21 40.777344,21 H 25.222656 C 23.991545,21 23,20.008455 23,18.777344 V 3.2226562 C 23,1.9915451 23.991545,1 25.222656,1 Z"
       id="path5" />
    <path
       style="opacity:0.6;fill:#ffffff"
       d="M 25.222656,1.0000002 C 23.991545,1.0000002 23,1.9915452 23,3.2226562 v 1 c 0,-1.231111 0.991545,-2.222656 2.222656,-2.222656 H 40.777344 C 42.008455,2.0000002 43,2.9915452 43,4.2226562 v -1 c 0,-1.231111 -0.991545,-2.222656 -2.222656,-2.222656 z"
       id="path6" />
    <path
       style="fill:#ffffff"
       d="m 33,15 v 0 l 4,-4 V 9 h -8 v 2 z"
       id="path7" />
    <path
       style="opacity:0.25"
       d="m 29,9 v 1 h 8 V 9 Z"
       id="path8" />
  </g>
  <g
     id="pressed-center">
    <path
       style="opacity:0.37"
       d="M 47.300781,0 C 45.491611,0 44,1.4916113 44,3.3007812 V 18.699219 C 44,20.508389 45.491611,22 47.300781,22 H 62.699219 C 64.508389,22 66,20.508389 66,18.699219 V 3.3007812 C 66,1.4916113 64.508389,0 62.699219,0 Z m -0.07813,1 H 62.777344 C 64.008455,1 65,1.9915451 65,3.2226562 V 18.777344 C 65,20.008455 64.008455,21 62.777344,21 H 47.222656 C 45.991545,21 45,20.008455 45,18.777344 V 3.2226562 C 45,1.9915451 45.991545,1 47.222656,1 Z"
       id="path10" />
    <path
       style="fill:#4381c1;fill-opacity:1"
       d="m 55,15 v 0 l 4,-4 V 9 h -8 v 2 z"
       id="path11" />
    <path
       style="fill:#1f61a9"
       d="m 51,9 v 1 h 8 V 9 Z"
       id="path12" />
  </g>
  <g
     id="inactive-center">
    <rect
       style="opacity:0.001"
       width="22"
       height="22"
       x="66"
       y="0"
       id="rect13" />
    <path
       style="fill:#ececec"
       d="m 77,15 v 0 l 4,-4 V 9 h -8 v 2 z"
       id="path14" />
    <path
       style="opacity:0.21"
       d="m 73,9 v 1 h 8 V 9 Z"
       id="path15" />
  </g>
  <g
     id="deactivated-center">
    <rect
       style="opacity:0.001"
       width="22"
       height="22"
       x="88"
       y="0"
       id="rect16" />
    <path
       style="fill:#ececec"
       d="m 99,15 v 0 l 4,-4 V 9 h -8 v 2 z"
       id="path17" />
    <path
       style="opacity:0.21"
       d="m 95,9 v 1 h 8 V 9 Z"
       id="path18" />
  </g>
</svg>
