<?xml version="1.0" encoding="UTF-8" standalone="no"?>
<svg
   width="22"
   height="22"
   version="1.1"
   id="svg19"
   sodipodi:docname="maximize.svg"
   inkscape:version="1.3 (0e150ed6c4, 2023-07-21)"
   xmlns:inkscape="http://www.inkscape.org/namespaces/inkscape"
   xmlns:sodipodi="http://sodipodi.sourceforge.net/DTD/sodipodi-0.dtd"
   xmlns:xlink="http://www.w3.org/1999/xlink"
   xmlns="http://www.w3.org/2000/svg"
   xmlns:svg="http://www.w3.org/2000/svg">
  <sodipodi:namedview
     id="namedview19"
     pagecolor="#ffffff"
     bordercolor="#999999"
     borderopacity="1"
     inkscape:showpageshadow="0"
     inkscape:pageopacity="0"
     inkscape:pagecheckerboard="0"
     inkscape:deskcolor="#d1d1d1"
     inkscape:zoom="4.7102273"
     inkscape:cx="34.180941"
     inkscape:cy="40.231604"
     inkscape:window-width="1920"
     inkscape:window-height="1016"
     inkscape:window-x="0"
     inkscape:window-y="32"
     inkscape:window-maximized="1"
     inkscape:current-layer="deactivated-center" />
  <defs
     id="defs2">
    <linearGradient
       id="linearGradient832">
      <stop
         style="stop-color:#4381c1;stop-opacity:1"
         offset="0"
         id="stop1" />
      <stop
         style="stop-color:#5fa0e4;stop-opacity:1"
         offset="1"
         id="stop2" />
    </linearGradient>
    <linearGradient
       id="linearGradient1169"
       x1="12"
       x2="12"
       y1="7"
       y2="15"
       gradientTransform="translate(44)"
       gradientUnits="userSpaceOnUse"
       xlink:href="#linearGradient832" />
  </defs>
  <g
     id="active-center"
     transform="matrix(1,0,0,-1,0,22)">
    <rect
       width="22"
       height="22"
       x="0"
       y="0"
       style="opacity:0.00100002"
       id="rect2" />
    <path
       d="m 10,7 v 3 H 7 v 2 h 3 v 3 h 2 v -3 h 3 V 10 H 12 V 7 Z"
       style="fill:#cccccc"
       id="path3" />
    <path
       d="m 10,7 v 1 h 2 V 7 Z m -3,3 v 1 h 3 v -1 z m 5,0 v 1 h 3 v -1 z"
       style="opacity:0.21"
       id="path4" />
  </g>
  <g
     id="hover-center"
     transform="matrix(1,0,0,-1,0,22)">
    <path
       style="opacity:0.37"
       d="M 25.300781,0 C 23.491611,0 22,1.4916113 22,3.3007812 V 18.699219 C 22,20.508389 23.491611,22 25.300781,22 H 40.699219 C 42.508389,22 44,20.508389 44,18.699219 V 3.3007812 C 44,1.4916113 42.508389,0 40.699219,0 Z m -0.07813,1 H 40.777344 C 42.008455,1 43,1.9915451 43,3.2226562 V 18.777344 C 43,20.008455 42.008455,21 40.777344,21 H 25.222656 C 23.991545,21 23,20.008455 23,18.777344 V 3.2226562 C 23,1.9915451 23.991545,1 25.222656,1 Z"
       id="path5" />
    <path
       style="opacity:0.6;fill:#ffffff"
       d="M 40.777344,21 C 42.008455,21 43,20.008455 43,18.777344 v -1 C 43,19.008455 42.008455,20 40.777344,20 L 25.222656,20 C 23.991545,20 23,19.008455 23,17.777344 l 0,1 C 23,20.008455 23.991545,21 25.222656,21 Z"
       id="path6" />
    <path
       style="fill:#ffffff"
       d="m 32,7 v 3 h -3 v 2 h 3 v 3 h 2 v -3 h 3 V 10 H 34 V 7 Z"
       id="path8" />
    <path
       style="opacity:0.25"
       d="m 32,7 v 1 h 2 V 7 Z m -3,3 v 1 h 3 v -1 z m 5,0 v 1 h 3 v -1 z"
       id="path9" />
  </g>
  <g
     id="pressed-center"
     transform="matrix(1,0,0,-1,0,22)">
    <path
       style="opacity:0.37"
       d="M 47.300781,0 C 45.491611,0 44,1.4916113 44,3.3007812 V 18.699219 C 44,20.508389 45.491611,22 47.300781,22 H 62.699219 C 64.508389,22 66,20.508389 66,18.699219 V 3.3007812 C 66,1.4916113 64.508389,0 62.699219,0 Z m -0.07813,1 H 62.777344 C 64.008455,1 65,1.9915451 65,3.2226562 V 18.777344 C 65,20.008455 64.008455,21 62.777344,21 H 47.222656 C 45.991545,21 45,20.008455 45,18.777344 V 3.2226562 C 45,1.9915451 45.991545,1 47.222656,1 Z"
       id="path10" />
    <path
       d="m 54,7 v 3 h -3 v 2 h 3 v 3 h 2 v -3 h 3 V 10 H 56 V 7 Z"
       style="fill:#4381c1;fill-opacity:1"
       id="path12" />
    <path
       d="m 54,7 v 1 h 2 V 7 Z m -3,3 v 1 h 3 v -1 z m 5,0 v 1 h 3 v -1 z"
       style="fill:#1f61a9"
       id="path13" />
  </g>
  <g
     id="inactive-center"
     transform="matrix(1,0,0,-1,0,22)"
     style="opacity:0.99;fill:#ececec">
    <rect
       style="opacity:0.00100002;fill:#ececec"
       width="22"
       height="22"
       x="66"
       y="0"
       id="rect13" />
    <path
       style="fill:#ececec"
       d="m 76,7 v 3 h -3 v 2 h 3 v 3 h 2 v -3 h 3 V 10 H 78 V 7 Z"
       id="path15" />
    <path
       style="opacity:0.21;fill:#ececec"
       d="m 76,7 v 1 h 2 V 7 Z m -3,3 v 1 h 3 v -1 z m 5,0 v 1 h 3 v -1 z"
       id="path16" />
  </g>
  <g
     id="deactivated-center"
     transform="matrix(1,0,0,-1,22,22)"
     style="fill:#ececec">
    <rect
       width="22"
       height="22"
       x="66"
       y="0"
       style="opacity:0.00100002;fill:#ececec"
       id="rect16" />
    <path
       d="m 76,7 v 3 h -3 v 2 h 3 v 3 h 2 v -3 h 3 V 10 H 78 V 7 Z"
       style="fill:#ececec"
       id="path18" />
    <path
       d="m 76,7 v 1 h 2 V 7 Z m -3,3 v 1 h 3 v -1 z m 5,0 v 1 h 3 v -1 z"
       style="opacity:0.21;fill:#ececec"
       id="path19" />
  </g>
</svg>
