<?xml version="1.0" encoding="UTF-8" standalone="no"?>
<svg
   width="22"
   height="22"
   version="1.1"
   id="svg23"
   sodipodi:docname="close.svg"
   inkscape:version="1.3 (0e150ed6c4, 2023-07-21)"
   xmlns:inkscape="http://www.inkscape.org/namespaces/inkscape"
   xmlns:sodipodi="http://sodipodi.sourceforge.net/DTD/sodipodi-0.dtd"
   xmlns:xlink="http://www.w3.org/1999/xlink"
   xmlns="http://www.w3.org/2000/svg"
   xmlns:svg="http://www.w3.org/2000/svg">
  <sodipodi:namedview
     id="namedview23"
     pagecolor="#ffffff"
     bordercolor="#999999"
     borderopacity="1"
     inkscape:showpageshadow="0"
     inkscape:pageopacity="0"
     inkscape:pagecheckerboard="0"
     inkscape:deskcolor="#d1d1d1"
     inkscape:zoom="9.4204546"
     inkscape:cx="30.996381"
     inkscape:cy="28.183353"
     inkscape:window-width="1920"
     inkscape:window-height="1016"
     inkscape:window-x="0"
     inkscape:window-y="32"
     inkscape:window-maximized="1"
     inkscape:current-layer="svg23"
     showguides="true" />
  <defs
     id="defs2">
    <linearGradient
       id="linearGradient832">
      <stop
         style="stop-color:#4381c1;stop-opacity:1"
         offset="0"
         id="stop1" />
      <stop
         style="stop-color:#5fa0e4;stop-opacity:1"
         offset="1"
         id="stop2" />
    </linearGradient>
    <linearGradient
       id="linearGradient1094"
       x1="55"
       x2="55"
       y1="7"
       y2="16"
       gradientUnits="userSpaceOnUse"
       xlink:href="#linearGradient832" />
  </defs>
  <g
     id="active-center">
    <rect
       width="22"
       height="22"
       x="0"
       y="0"
       style="opacity:0.001"
       id="rect2" />
    <path
       d="m 7,7 v 1 1 h 1 v 1 h 1 v 1 h 1 v 1 H 8 v 1 H 7 v 2 h 2 v -1 h 1 v -1 h 1 1 v 1 h 1 v 1 h 2 v -2 h -1 v -1 h -2 v -1 h 1 v -1 h 1 V 9 h 1 V 8 7 H 13 V 8 H 12 V 9 H 11 10 V 8 H 9 V 7 Z"
       style="fill:#cccccc"
       id="path3" />
    <path
       d="m 9,11 v 1 h 1 v -1 z m 3,0 v 1 h 1 v -1 z"
       style="fill:#b0b0b0"
       id="path4" />
    <path
       d="M 7,7 V 8 H 9 V 7 Z m 2,1 v 1 h 1 V 8 Z m 1,1 v 1 h 1 1 V 9 h -1 z m 2,0 h 1 V 8 h -1 z m 1,-1 h 2 V 7 h -2 z m -5,4 v 1 h 1 v -1 z m 0,1 H 7 v 1 h 1 z m 5,-1 v 1 h 1 v -1 z m 1,1 v 1 h 1 v -1 z"
       style="opacity:0.21"
       id="path5" />
  </g>
  <g
     id="hover-center">
    <path
       style="fill:#ffffff"
       d="m 29,7 v 1 1 h 1 v 1 h 1 v 1 h 1 v 1 h -2 v 1 h -1 v 2 h 2 v -1 h 1 v -1 h 1 1 v 1 h 1 v 1 h 2 v -2 h -1 v -1 h -2 v -1 h 1 v -1 h 1 V 9 h 1 V 8 7 H 35 V 8 H 34 V 9 H 33 32 V 8 H 31 V 7 Z"
       id="path7" />
    <path
       d="M 25.300781,0 C 23.491611,0 22,1.4916113 22,3.3007812 V 18.699219 C 22,20.508389 23.491611,22 25.300781,22 H 40.699219 C 42.508389,22 44,20.508389 44,18.699219 V 3.3007812 C 44,1.4916113 42.508389,0 40.699219,0 Z m -0.07813,1 H 40.777344 C 42.008455,1 43,1.9915451 43,3.2226562 V 18.777344 C 43,20.008455 42.008455,21 40.777344,21 H 25.222656 C 23.991545,21 23,20.008455 23,18.777344 V 3.2226562 C 23,1.9915451 23.991545,1 25.222656,1 Z"
       style="opacity:0.37"
       id="path10" />
    <path
       style="fill:#e6e6e6"
       d="m 26,6 v 1 h 1 V 6 Z m 3,0 v 1 h 1 V 6 Z"
       id="path8-6"
       transform="translate(5,5)" />
    <path
       d="M 25.222656,1 C 23.991545,1 23,1.9915451 23,3.2226562 v 1 C 23,2.9915451 23.991545,2 25.222656,2 H 40.777344 C 42.008455,2 43,2.9915451 43,4.2226562 v -1 C 43,1.9915451 42.008455,1 40.777344,1 Z"
       style="opacity:0.6;fill:#ffffff"
       id="path11" />
  </g>
  <g
     id="inactive-center"
     style="fill:#ececec">
    <rect
       width="22"
       height="22"
       x="66"
       y="0"
       style="opacity:0.001;fill:#ececec"
       id="rect11" />
    <path
       style="fill:#ececec"
       d="m 73,7 v 1 1 h 1 v 1 h 1 v 1 h 1 v 1 h -2 v 1 h -1 v 2 h 2 v -1 h 1 v -1 h 1 1 v 1 h 1 v 1 h 2 v -2 h -1 v -1 h -2 v -1 h 1 v -1 h 1 V 9 h 1 V 8 7 H 79 V 8 H 78 V 9 H 77 76 V 8 H 75 V 7 Z"
       id="path13" />
    <path
       style="fill:#ececec"
       d="m 75,11 v 1 h 1 v -1 z m 3,0 v 1 h 1 v -1 z"
       id="path14" />
    <path
       style="opacity:0.21;fill:#ececec"
       d="m 73,7 v 1 h 2 V 7 Z m 2,1 v 1 h 1 V 8 Z m 1,1 v 1 h 1 1 V 9 h -1 z m 2,0 h 1 V 8 h -1 z m 1,-1 h 2 V 7 h -2 z m -5,4 v 1 h 1 v -1 z m 0,1 h -1 v 1 h 1 z m 5,-1 v 1 h 1 v -1 z m 1,1 v 1 h 1 v -1 z"
       id="path15" />
  </g>
  <g
     id="pressed-center">
    <path
       style="fill:#c14343;fill-opacity:1"
       d="M 51 7 L 51 8 L 51 9 L 52 9 L 52 10 L 53 10 L 53 11 L 53 12 L 52 12 L 52 13 L 51 13 L 51 15 L 53 15 L 53 14 L 54 14 L 54 13 L 55 13 L 56 13 L 56 14 L 57 14 L 57 15 L 59 15 L 59 13 L 58 13 L 58 12 L 57 12 L 57 11 L 57 10 L 58 10 L 58 9 L 59 9 L 59 8 L 59 7 L 57 7 L 57 8 L 56 8 L 56 9 L 55 9 L 54 9 L 54 8 L 53 8 L 53 7 L 51 7 z"
       id="path17" />
    <path
       style="fill:#8e0b0b;fill-opacity:1"
       d="m 53,11 v 1 h 1 v -1 z m 3,0 v 1 h 1 v -1 z"
       id="path8" />
    <path
       d="M 47.300781,0 C 45.491611,0 44,1.4916113 44,3.3007812 V 18.699219 C 44,20.508389 45.491611,22 47.300781,22 H 62.699219 C 64.508389,22 66,20.508389 66,18.699219 V 3.3007812 C 66,1.4916113 64.508389,0 62.699219,0 Z m -0.07813,1 H 62.777344 C 64.008455,1 65,1.9915451 65,3.2226562 V 18.777344 C 65,20.008455 64.008455,21 62.777344,21 H 47.222656 C 45.991545,21 45,20.008455 45,18.777344 V 3.2226562 C 45,1.9915451 45.991545,1 47.222656,1 Z"
       style="opacity:0.37"
       id="path19" />
  </g>
  <g
     id="deactivated-center"
     transform="translate(22)"
     style="fill:#ececec">
    <rect
       style="opacity:0.001;fill:#ececec"
       width="22"
       height="22"
       x="66"
       y="0"
       id="rect19" />
    <path
       d="m 73,7 v 1 1 h 1 v 1 h 1 v 1 h 1 v 1 h -2 v 1 h -1 v 2 h 2 v -1 h 1 v -1 h 1 1 v 1 h 1 v 1 h 2 v -2 h -1 v -1 h -2 v -1 h 1 v -1 h 1 V 9 h 1 V 8 7 H 79 V 8 H 78 V 9 H 77 76 V 8 H 75 V 7 Z"
       style="fill:#ececec"
       id="path21" />
    <path
       d="m 75,11 v 1 h 1 v -1 z m 3,0 v 1 h 1 v -1 z"
       style="fill:#ececec"
       id="path22" />
    <path
       d="m 73,7 v 1 h 2 V 7 Z m 2,1 v 1 h 1 V 8 Z m 1,1 v 1 h 1 1 V 9 h -1 z m 2,0 h 1 V 8 h -1 z m 1,-1 h 2 V 7 h -2 z m -5,4 v 1 h 1 v -1 z m 0,1 h -1 v 1 h 1 z m 5,-1 v 1 h 1 v -1 z m 1,1 v 1 h 1 v -1 z"
       style="opacity:0.21;fill:#ececec"
       id="path23" />
  </g>
</svg>
